<svg xmlns="http://www.w3.org/2000/svg" width="63" height="64" viewBox="0 0 63 64">
    <g fill="#E2001A" fill-rule="evenodd">
        <path d="M6.555 49.661c-2.31 0-3.162 1.197-3.138 3.578l6.24-.157c-.064-2.561-.828-3.421-3.102-3.421M49.393 54.605c0-3.608-.323-4.764-3.032-4.764-1.191 0-3.248.289-3.248.289v9.563s1.66.18 2.202.18c3.32 0 4.078-1.407 4.078-5.268M26.331 49.877c-1.19 0-3.463.614-3.463.614V63.23h5.99v-8.842c0-2.742.274-4.511-2.527-4.511"/>
        <path d="M62.587 38.509V4.391A3.694 3.694 0 0 0 58.892.697H3.748A3.694 3.694 0 0 0 .054 4.391v44.164c1.309-2.118 3.483-3.189 6.501-3.189 5.304 0 7.867 2.671 7.867 8.12l-.285 3.186-10.686.206c.036 2.057 1.047 2.923 3.645 2.923 2.959 0 6.677-.325 6.677-.325l.071 3.754h4.188V46.155h4.836v.438s2.778-1.227 4.475-1.227c5.881 0 6.35 3.175 6.35 9.022v8.842h4.585V38.546h4.835v7.65s2.31-.83 3.898-.83c5.738 0 7.289 2.345 7.289 9.239 0 4.829-1.03 7.386-3.355 8.625h7.038V45.799h4.604v-2.345h-4.604v-4.945h4.604"/>
    </g>
</svg>
