<?xml version="1.0" encoding="UTF-8"?>
<svg width="111px" height="34px" viewBox="0 0 111 34" version="1.1" xmlns="http://www.w3.org/2000/svg" xmlns:xlink="http://www.w3.org/1999/xlink">
    <!-- Generator: Sketch 48.2 (47327) - http://www.bohemiancoding.com/sketch -->
    <title>Logo / Primary</title>
    <desc>Created with Sketch.</desc>
    <defs></defs>
    <g id="Logos" stroke="none" stroke-width="1" fill="none" fill-rule="evenodd">
        <g id="Logo-/-Primary" fill-rule="nonzero">
            <g id="Group-2" transform="translate(-1.000000, 0.000000)">
                <path d="M17.8730462,0 C8.48666865,0 0.872425621,7.61424303 0.872425621,17.0006206 C0.872425621,26.3869981 8.48666865,34.0012412 17.8730462,34.0012412 C27.2594237,34.0012412 34.8736668,26.3869981 34.8736668,17.0006206 C34.8736668,7.61424303 27.2594237,0 17.8730462,0 Z M15.0495017,22.7325006 C10.1824912,22.7325006 6.23970384,18.7812342 6.23970384,13.9227027 C6.23970384,9.05569216 10.1909703,5.11290484 15.0495017,5.11290484 C19.9080332,5.11290484 23.8592996,9.07265038 23.8592996,13.9311819 C23.8592996,18.7897133 19.9165123,22.7325006 15.0495017,22.7325006 Z" id="Shape" fill="#332E2E"></path>
                <path d="M27.4374851,13.9311819 C27.4374851,20.7738256 21.8921455,26.3191652 15.0495017,26.3191652 C14.2355069,26.3191652 13.4384704,26.2343741 12.6668711,26.0902292 C12.8279743,26.1241456 13.0399521,26.1580621 13.0738685,26.1665412 C14.2355069,26.4209146 15.2021258,26.9211822 16.4400762,26.9211822 C24.3765255,26.9211822 31.4905009,20.9179706 31.4905009,12.9730421 C31.4905009,10.3953919 30.5493194,7.22420386 28.9467671,5.12986307 C28.9552462,5.13834218 28.9722045,5.1553004 28.9806836,5.16377952 C26.3436796,2.68787867 22.8842017,1.07684729 19.0516428,0.805515688 C18.8735815,0.788557463 18.6955201,0.780078351 18.5174587,0.771599238 C18.3054809,0.763120126 18.085024,0.754641013 17.8730462,0.754641013 C15.6260814,0.754641013 13.489345,1.21251309 11.5476283,2.04346611 C12.6499129,1.72125984 13.8285095,1.54319848 15.0410226,1.54319848 C21.8921455,1.53471936 27.4374851,7.08005894 27.4374851,13.9311819 Z" id="Shape" fill="#36E3EB"></path>
                <path d="M33.3983012,12.1929638 C33.686591,13.2698111 33.6781119,14.4060122 33.6781119,15.5676506 C33.6781119,18.3318412 32.8047633,20.722951 31.3124395,22.8257709 C30.3288625,24.343532 28.9298089,25.7934602 26.9287384,26.8703075 C21.4597108,29.8040805 16.5333464,27.6758232 14.9562315,26.8618284 C14.2015905,26.4717892 13.3197628,26.2428532 12.4972889,26.0478336 C10.7166752,25.623878 7.87617255,25.3610255 4.86608761,26.7176835 C7.93552634,30.8300531 12.9127654,33.4331406 18.4835423,33.2296419 C26.8354681,32.9243939 33.6696328,26.2004576 34.0935884,17.8570109 C34.1953378,15.8813777 33.9409644,13.9735774 33.3983012,12.1929638 Z" id="Shape" fill="#19799D"></path>
                <path d="M33.8476942,15.5761297 C33.8476942,14.4144913 33.686591,13.2698111 33.3983012,12.2014429 C33.3898221,12.1675264 33.381343,12.1420891 33.3728639,12.1081727 L33.3643848,12.0996935 C33.3643848,12.0912144 33.3559056,12.0827353 33.3559056,12.0742562 C33.2032816,11.5909468 33.0252203,11.1161165 32.8302007,10.6497653 C32.8217216,10.624328 32.8132424,10.6073697 32.8047633,10.5819324 C32.7114931,10.3699546 32.6182229,10.1579768 32.5164735,9.95447808 C32.5079944,9.93751986 32.4995153,9.92056163 32.4910362,9.8951243 C32.3808077,9.67466737 32.2705792,9.45421045 32.1518717,9.23375352 C32.1433925,9.2167953 32.1349134,9.19983707 32.1264343,9.18287885 C31.9738103,8.91154725 31.8127072,8.64021565 31.6431249,8.36888405 C31.6261667,8.34344671 31.6092085,8.30953026 31.5922502,8.28409292 C31.422668,8.01276132 31.2361275,7.74142972 31.049587,7.48705634 C31.0326288,7.46161901 31.0156706,7.43618167 30.9902332,7.41074433 C30.8121719,7.16485007 30.6256314,6.92743492 30.4306118,6.69001977 C30.4136536,6.66458243 30.3882163,6.63914509 30.371258,6.61370776 C30.1592802,6.35933438 29.9388233,6.11344012 29.7183664,5.87602497 C29.7098873,5.86754586 29.7014081,5.85906674 29.692929,5.85058763 C29.4894303,5.63013071 29.2689734,5.41815289 29.0569956,5.21465419 C29.0315583,5.18921685 29.0146,5.17225863 28.9891627,5.1553004 C30.1677593,7.24964119 30.8545674,9.65770915 30.8545674,12.2353593 C30.8545674,20.1718087 24.4189211,26.607455 16.4824717,26.607455 C15.2360422,26.607455 14.2694234,26.4463519 13.1162641,26.1919785 C13.0569103,26.1750203 12.5990382,26.0902292 12.5312053,26.0817501 C13.3536792,26.2767697 14.1507158,26.5904968 14.9053568,26.980536 C14.9816688,27.0229316 15.0749391,27.0653271 15.1682093,27.1077227 C15.1851675,27.1162018 15.1936466,27.1246809 15.2106049,27.13316 C15.3038751,27.1755556 15.4056245,27.2264303 15.5158529,27.2773049 C15.5328111,27.2857841 15.5582485,27.2942632 15.5752067,27.3027423 C15.6854352,27.353617 15.8041427,27.4044916 15.9313294,27.4553663 C15.9482877,27.4638454 15.973725,27.4723245 15.9906832,27.4808036 C16.126349,27.5401574 16.2704939,27.5910321 16.4146388,27.6503859 C16.5079091,27.6843023 16.6011793,27.7182188 16.7029287,27.7521352 C16.8555527,27.8030099 17.0251349,27.8623637 17.1947172,27.9132384 C17.2201545,27.9217175 17.2455919,27.9301966 17.2710292,27.9386757 C17.4321323,27.9895504 17.6101937,28.0404251 17.779776,28.0828206 C17.8136924,28.0912997 17.8476089,28.0997789 17.8815253,28.108258 C18.0595867,28.1506535 18.2461271,28.2015282 18.4326676,28.2354447 C18.458105,28.2439238 18.4920214,28.2439238 18.5174587,28.2524029 C18.7209574,28.2947984 18.9244561,28.337194 19.136434,28.3711105 C19.3144953,28.3965478 19.4925567,28.4219851 19.6706181,28.4474225 C19.7130136,28.4559016 19.7638883,28.4559016 19.8062839,28.4643807 C20.1708857,28.5067763 20.5524458,28.5322136 20.950964,28.5406927 C21.0018387,28.5406927 21.0527134,28.5406927 21.095109,28.5406927 C21.2901285,28.5406927 21.4936272,28.5406927 21.6971259,28.5322136 C22.002374,28.5237345 22.307622,28.4982971 22.6213492,28.4643807 C22.6383074,28.4643807 22.6552657,28.4559016 22.6722239,28.4559016 C22.9435555,28.4219851 23.2233662,28.3795896 23.5031769,28.3287149 C23.5540516,28.3202358 23.6049263,28.3117567 23.6558009,28.2947984 C23.9525699,28.2354447 24.2493388,28.1676118 24.5461077,28.0828206 C24.8767931,27.9895504 25.2074785,27.8793219 25.546643,27.7521352 C25.7670999,27.6673441 25.996036,27.5740739 26.2164929,27.4723245 C26.2758467,27.4468872 26.3267214,27.4214499 26.3860752,27.3960125 C26.6150112,27.2942632 26.8439472,27.1840347 27.0644042,27.056848 C29.0654747,25.9884798 30.4560492,24.5215934 31.4481053,23.0123113 C32.9658665,20.9094914 33.8476942,18.3487995 33.8476942,15.5761297 Z" id="Shape" fill="#00A7CF"></path>
            </g>
            <g id="Group-2" transform="translate(38.000000, 4.500000)" fill="#332E2E">
                <g id="Logo_Projects-for-Good_Update">
                    <path d="M1.00268584,0.673500091 L3.66460748,0.673500091 C6.34998217,0.673500091 7.80407152,2.18687104 7.80407152,4.40413544 C7.80407152,6.59793674 6.34998217,8.11130768 3.66460748,8.11130768 L2.38641603,8.11130768 L2.38641603,10.4693508 L1.00268584,10.4693508 L1.00268584,0.673500091 Z M3.60597484,6.93815191 C5.61121096,6.93815191 6.4086148,5.91750639 6.4086148,4.40413544 C6.4086148,2.87903294 5.59948444,1.87011898 3.60597484,1.87011898 L2.38641603,1.87011898 L2.38641603,6.92642035 L3.60597484,6.92642035 L3.60597484,6.93815191 Z" id="Shape"></path>
                    <path d="M16.7514116,10.4693508 L15.1917835,10.4693508 L13.3976249,7.86494497 C13.1279148,7.92360276 12.8112986,7.94706587 12.5064089,7.94706587 L11.2164909,7.94706587 L11.2164909,10.4810823 L9.84448722,10.4810823 L9.84448722,0.685231648 L12.5181354,0.685231648 C15.1448774,0.685231648 16.6341464,2.13994481 16.6341464,4.32201454 C16.6341464,5.78845925 15.9422813,6.90295724 14.6640898,7.46607201 L16.7514116,10.4693508 Z M12.4595028,6.76217855 C14.4881919,6.76217855 15.2386897,5.75326458 15.2386897,4.31028298 C15.2386897,2.90249606 14.4881919,1.88185054 12.4595028,1.88185054 L11.2282174,1.88185054 L11.2282174,6.75044699 L12.4595028,6.75044699 L12.4595028,6.76217855 Z" id="Shape"></path>
                    <path d="M18.2524071,5.56555966 C18.2524071,2.59747556 20.609439,0.509258283 23.4003525,0.509258283 C26.214719,0.509258283 28.5482978,2.59747556 28.5482978,5.56555966 C28.5482978,8.5219122 26.214719,10.621861 23.4003525,10.621861 C20.609439,10.621861 18.2524071,8.5219122 18.2524071,5.56555966 Z M27.1528411,5.56555966 C27.1528411,3.37175837 25.6049396,1.71760873 23.412079,1.71760873 C21.230945,1.71760873 19.6713169,3.36002681 19.6713169,5.56555966 C19.6713169,7.78282407 21.2426715,9.41351059 23.412079,9.41351059 C25.6049396,9.42524215 27.1528411,7.78282407 27.1528411,5.56555966 Z" id="Shape"></path>
                    <polygon id="Shape" points="38.4923928 0.673500091 44.683999 0.673500091 44.683999 1.87011898 39.876123 1.87011898 39.876123 5.87058016 44.1093992 5.87058016 44.1093992 7.00854126 39.876123 7.00854126 39.876123 9.26100034 44.8716235 9.26100034 44.8716235 10.4458877 38.4806662 10.4458877 38.4806662 0.661768533"></polygon>
                    <path d="M46.7713208,5.56555966 C46.7713208,2.63267023 48.9641814,0.509258283 51.7785479,0.509258283 C53.6430657,0.509258283 54.8626245,1.20142019 55.7538406,2.49189154 L54.6867266,3.23097967 C54.0534941,2.31591817 53.1622781,1.71760873 51.7668214,1.71760873 C49.64432,1.71760873 48.155051,3.38348992 48.155051,5.56555966 C48.155051,7.74762939 49.64432,9.41351059 51.7433683,9.41351059 C53.2091842,9.41351059 54.2528451,8.75654336 54.874351,7.80628718 L55.9531915,8.48671753 C55.1206081,9.82411511 53.7016983,10.6335926 51.7433683,10.6335926 C48.9290018,10.621861 46.7713208,8.49844909 46.7713208,5.56555966 Z" id="Shape"></path>
                    <polygon id="Shape" points="60.3740922 1.88185054 57.3486482 1.88185054 57.3486482 0.685231648 64.7832664 0.685231648 64.7832664 1.88185054 61.7578224 1.88185054 61.7578224 10.4693508 60.3858187 10.4693508"></polygon>
                    <path d="M65.9793721,8.5219122 L67.0816657,7.90013964 C67.5038206,8.75654336 68.2660449,9.44870526 69.5676894,9.44870526 C70.6699829,9.44870526 71.4791133,8.86212738 71.4791133,7.98226055 C71.4791133,7.06719905 70.9514196,6.62139985 69.7084077,6.07001664 L68.9344569,5.71806991 C67.5624533,5.13149202 66.6829637,4.38067233 66.6829637,2.96115385 C66.6829637,1.4477829 67.8790695,0.509258283 69.4269711,0.509258283 C70.7872482,0.509258283 71.6432847,1.07237305 72.2413376,1.975703 L71.2211297,2.6678649 C70.8107013,2.06955546 70.3064606,1.64721938 69.4621507,1.64721938 C68.5943877,1.64721938 68.0080613,2.11648169 68.0080613,2.92595917 C68.0080613,3.67677887 68.4302163,4.06392027 69.380065,4.49798791 L70.1774688,4.84993464 C71.8191826,5.56555966 72.8393904,6.36330558 72.8393904,7.93533432 C72.8393904,9.56602084 71.5377459,10.5983979 69.5911424,10.5983979 C67.7500777,10.621861 66.5187924,9.6598733 65.9793721,8.5219122 Z" id="Shape"></path>
                    <path d="M30.8936032,7.75936095 C31.1164073,8.78000647 32.1248886,9.34312124 32.9809251,9.34312124 C33.9542268,9.34312124 35.0096142,8.61576466 35.0096142,7.2197093 L35.0096142,1.85838742 L30.9053298,1.85838742 L30.9053298,0.661768533 L36.3816179,0.661768533 L36.3816179,7.2197093 C36.3816179,9.36658436 35.0916999,10.5983979 32.9809251,10.5983979 C31.4682031,10.5983979 29.8264893,9.58948396 29.6154118,7.73589784 L30.9053298,7.73589784 L30.8936032,7.75936095 Z" id="Shape"></path>
                    <g id="Group" transform="translate(0.885421, 13.589945)">
                        <polygon id="Shape" points="0.105538743 1.39605537 5.52319423 1.39605537 5.52319423 2.46362712 1.33682408 2.46362712 1.33682408 6.0769469 5.13621884 6.0769469 5.13621884 7.14451865 1.33682408 7.14451865 1.33682408 10.0656765 0.11726527 10.0656765"></polygon>
                        <path d="M6.78965915,5.72500017 C6.78965915,3.09713124 8.87698096,1.25527668 11.3395516,1.25527668 C13.8373019,1.25527668 15.8894441,3.09713124 15.8894441,5.72500017 C15.8894441,8.34113754 13.8255754,10.1947237 11.3395516,10.1947237 C8.87698096,10.1947237 6.78965915,8.34113754 6.78965915,5.72500017 Z M14.6698853,5.72500017 C14.6698853,3.77756158 13.2978817,2.32284843 11.3512782,2.32284843 C9.41640121,2.32284843 8.03267102,3.77756158 8.03267102,5.72500017 C8.03267102,7.6841703 9.41640121,9.1271519 11.3512782,9.1271519 C13.2861551,9.13888346 14.6698853,7.6841703 14.6698853,5.72500017 Z" id="Shape"></path>
                        <path d="M23.8048499,10.0656765 L22.4328462,10.0656765 L20.8614916,7.75455965 C20.626961,7.80148588 20.3455244,7.824949 20.0758143,7.824949 L18.9266146,7.824949 L18.9266146,10.0656765 L17.7070558,10.0656765 L17.7070558,1.39605537 L20.0523612,1.39605537 C22.3742136,1.39605537 23.6993111,2.67479516 23.6993111,4.61050218 C23.6993111,5.91270509 23.0778052,6.89815594 21.9637851,7.40261292 L23.8048499,10.0656765 Z M20.0054551,6.78084036 C21.7996138,6.78084036 22.4680258,5.88924197 22.4680258,4.61050218 C22.4680258,3.35522551 21.7996138,2.46362712 20.0054551,2.46362712 L18.9148881,2.46362712 L18.9148881,6.7691088 L20.0054551,6.78084036 Z" id="Shape"></path>
                        <path d="M28.7768973,5.1618854 C28.7768973,2.20553285 31.0283905,0.105584019 33.8310305,0.105584019 C35.4375647,0.105584019 36.5867643,0.645235674 37.3841682,1.47817627 L36.4929521,2.39323777 C35.9066258,1.75973366 35.0857689,1.31393446 33.8310305,1.31393446 C31.6498965,1.31393446 30.1840806,3.01501033 30.1840806,5.1618854 C30.1840806,7.34395513 31.5912638,9.045031 33.9717488,9.045031 C35.1678546,9.045031 36.0356176,8.65788959 36.5515848,8.27074819 L36.5515848,6.40543051 L33.8896631,6.40543051 L33.8896631,5.2440063 L37.8297762,5.2440063 L37.8297762,8.93944698 C37.1379111,9.52602487 35.8597197,10.1947237 33.9717488,10.1947237 C30.9463048,10.2181868 28.7768973,8.07131171 28.7768973,5.1618854 Z" id="Shape"></path>
                        <path d="M39.7412001,5.1618854 C39.7412001,2.19380129 42.098232,0.105584019 44.8891455,0.105584019 C47.703512,0.105584019 50.0370908,2.19380129 50.0370908,5.1618854 C50.0370908,8.11823794 47.703512,10.2181868 44.8891455,10.2181868 C42.098232,10.2181868 39.7412001,8.11823794 39.7412001,5.1618854 Z M48.6416341,5.1618854 C48.6416341,2.9680841 47.0937326,1.31393446 44.900872,1.31393446 C42.719738,1.31393446 41.1601099,2.95635254 41.1601099,5.1618854 C41.1601099,7.3791498 42.7314645,9.00983633 44.900872,9.00983633 C47.082006,9.00983633 48.6416341,7.3791498 48.6416341,5.1618854 Z" id="Shape"></path>
                        <path d="M51.7139842,5.1618854 C51.7139842,2.19380129 54.0710161,0.105584019 56.8619296,0.105584019 C59.6762961,0.105584019 62.0098749,2.19380129 62.0098749,5.1618854 C62.0098749,8.11823794 59.6762961,10.2181868 56.8619296,10.2181868 C54.0475631,10.2181868 51.7139842,8.11823794 51.7139842,5.1618854 Z M60.5909652,5.1618854 C60.5909652,2.9680841 59.0430636,1.31393446 56.850203,1.31393446 C54.669069,1.31393446 53.1094409,2.95635254 53.1094409,5.1618854 C53.1094409,7.3791498 54.6807955,9.00983633 56.850203,9.00983633 C59.0430636,9.00983633 60.5909652,7.3791498 60.5909652,5.1618854 Z" id="Shape"></path>
                        <path d="M64.0151111,0.269825827 L66.6770327,0.269825827 C69.8666481,0.269825827 71.9070638,2.24072752 71.9070638,5.1618854 C71.9070638,8.09477482 69.8666481,10.053945 66.6770327,10.053945 L64.0151111,10.053945 L64.0151111,0.269825827 Z M66.5832205,8.84559452 C69.2685952,8.84559452 70.4998805,7.35568669 70.4998805,5.15015384 C70.4998805,2.9680841 69.2568686,1.45471316 66.5832205,1.45471316 L65.3988413,1.45471316 L65.3988413,8.83386296 L66.5832205,8.83386296 L66.5832205,8.84559452 Z" id="Shape"></path>
                    </g>
                </g>
            </g>
        </g>
    </g>
</svg>