<?xml version="1.0" encoding="utf-8"?>
<!-- Generator: Adobe Illustrator 22.0.0, SVG Export Plug-In . SVG Version: 6.00 Build 0)  -->
<svg version="1.1" id="Слой_1" xmlns="http://www.w3.org/2000/svg" xmlns:xlink="http://www.w3.org/1999/xlink" x="0px" y="0px"
	 viewBox="0 0 121.8 21.8" style="enable-background:new 0 0 121.8 21.8;" xml:space="preserve">
<style type="text/css">
	.st0{fill:#FFFFFF;}
</style>
<g>
	<path class="st0" d="M5.5,2.8V0.6H0.3v18.5h5.2V10c0-1.5,0.3-2.8,1-3.7c0.7-0.9,1.6-1.4,2.8-1.4c1,0,1.9,0.2,2.7,0.7l1.5-4.8
		c-0.9-0.4-1.9-0.7-3.1-0.7C8.4,0.2,6.8,1,5.5,2.8z"/>
	<path class="st0" d="M24.9,0.2c-2.8,0-5.1,0.9-7,2.7C16,4.8,15,7,15,9.6c0,2.6,1,4.9,2.9,6.7c1.9,1.8,4.2,2.7,7,2.7
		c2.8,0,5.1-0.9,7-2.7c1.9-1.8,2.9-4,2.9-6.7c0-2.6-1-4.9-2.9-6.7C30,1.1,27.7,0.2,24.9,0.2z M28.3,13c-1,0.9-2.1,1.4-3.4,1.4
		c-1.3,0-2.5-0.5-3.4-1.4c-1-0.9-1.4-2-1.4-3.4c0-1.3,0.5-2.5,1.4-3.4c1-0.9,2.1-1.4,3.4-1.4c1.3,0,2.5,0.5,3.4,1.4
		c1,0.9,1.4,2,1.4,3.4C29.8,11,29.3,12.1,28.3,13z"/>
	<path class="st0" d="M47.4,0.2c-2.8,0-5.1,0.9-7,2.7c-1.9,1.8-2.9,4-2.9,6.7c0,2.6,0.9,4.9,2.8,6.7c1.9,1.8,4.2,2.7,7,2.7
		c2.8,0,5.1-0.9,7-2.7c1.9-1.8,2.9-4,2.9-6.7c0-2.6-0.9-4.9-2.8-6.7C52.5,1.2,50.2,0.3,47.4,0.2z M50.7,13c-1,0.9-2.1,1.4-3.4,1.4
		c-1.3,0-2.5-0.5-3.4-1.4c-0.9-0.9-1.4-2.1-1.4-3.4c0-1.3,0.5-2.5,1.4-3.4c1-0.9,2.1-1.4,3.4-1.4c1.3,0,2.5,0.5,3.4,1.4
		c0.9,0.9,1.4,2.1,1.4,3.4C52.2,11,51.7,12.1,50.7,13z"/>
	<path class="st0" d="M71.4,0.1c-2.2,0-4,0.8-5.4,2.4l0-2l-5.2,0L60.7,19l5.2,0l0-10.9c0-1.1,0.3-1.9,0.9-2.5c0.6-0.6,1.4-1,2.4-1
		c1,0,1.8,0.3,2.4,1c0.6,0.6,0.9,1.5,0.9,2.5l0,10.9l5.2,0L77.8,7c0-2.1-0.6-3.7-1.8-5C74.7,0.8,73.2,0.2,71.4,0.1z"/>
	<polygon class="st0" points="89.8,10.5 85.5,0.6 80.3,0.6 87.4,15.6 84.6,21.5 89.7,21.5 99.5,0.6 94.3,0.6 	"/>
	<polygon class="st0" points="115.2,9.5 121.3,0.6 115.4,0.6 111.8,6.2 108.2,0.6 102.2,0.6 108.3,9.5 101.7,19 107.6,19 
		111.8,12.7 115.9,19 121.8,19 	"/>
</g>
</svg>
